<mxfile host="65bd71144e">
    <diagram id="HEs0yZJ1b8wvhLX3Ak_A" name="Page-1">
        <mxGraphModel dx="1084" dy="713" grid="1" gridSize="10" guides="1" tooltips="1" connect="1" arrows="1" fold="1" page="1" pageScale="1" pageWidth="850" pageHeight="1100" math="0" shadow="0">
            <root>
                <mxCell id="0"/>
                <mxCell id="1" parent="0"/>
                <mxCell id="2CqPvURFtL7TkKafsAJ7-1" value="&lt;div&gt;User&lt;/div&gt;" style="shape=umlActor;verticalLabelPosition=bottom;verticalAlign=top;html=1;outlineConnect=0;" parent="1" vertex="1">
                    <mxGeometry x="40" y="200" width="40" height="80" as="geometry"/>
                </mxCell>
                <mxCell id="2CqPvURFtL7TkKafsAJ7-2" value="Click on the Login/Register Button" style="ellipse;whiteSpace=wrap;html=1;" parent="1" vertex="1">
                    <mxGeometry x="120" y="160" width="160" height="80" as="geometry"/>
                </mxCell>
                <mxCell id="2CqPvURFtL7TkKafsAJ7-3" value="Click on Register Button" style="ellipse;whiteSpace=wrap;html=1;" parent="1" vertex="1">
                    <mxGeometry x="280" y="40" width="160" height="80" as="geometry"/>
                </mxCell>
                <mxCell id="2CqPvURFtL7TkKafsAJ7-4" value="Fills the fields:&lt;br&gt;&lt;div&gt;- Family Name&lt;br&gt;&lt;/div&gt;&lt;div&gt;- First Name&lt;br&gt;&lt;/div&gt;&lt;div&gt;- email&lt;/div&gt;" style="ellipse;whiteSpace=wrap;html=1;" parent="1" vertex="1">
                    <mxGeometry x="520" y="80" width="160" height="80" as="geometry"/>
                </mxCell>
                <mxCell id="2CqPvURFtL7TkKafsAJ7-10" value="User verified" style="ellipse;whiteSpace=wrap;html=1;" parent="1" vertex="1">
                    <mxGeometry x="320" y="480" width="160" height="80" as="geometry"/>
                </mxCell>
                <mxCell id="2CqPvURFtL7TkKafsAJ7-11" value="User is admin ?" style="rhombus;whiteSpace=wrap;html=1;" parent="1" vertex="1">
                    <mxGeometry x="170" y="480" width="120" height="120" as="geometry"/>
                </mxCell>
                <mxCell id="2CqPvURFtL7TkKafsAJ7-17" value="" style="endArrow=classic;html=1;rounded=0;entryX=1;entryY=0.5;entryDx=0;entryDy=0;exitX=0.018;exitY=0.636;exitDx=0;exitDy=0;exitPerimeter=0;" parent="1" source="2CqPvURFtL7TkKafsAJ7-10" target="2CqPvURFtL7TkKafsAJ7-11" edge="1">
                    <mxGeometry width="50" height="50" relative="1" as="geometry">
                        <mxPoint x="460" y="500" as="sourcePoint"/>
                        <mxPoint x="510" y="450" as="targetPoint"/>
                    </mxGeometry>
                </mxCell>
                <mxCell id="2CqPvURFtL7TkKafsAJ7-18" value="" style="endArrow=classic;html=1;rounded=0;entryX=0;entryY=1;entryDx=0;entryDy=0;exitX=0.779;exitY=0.098;exitDx=0;exitDy=0;exitPerimeter=0;" parent="1" source="2CqPvURFtL7TkKafsAJ7-2" target="2CqPvURFtL7TkKafsAJ7-3" edge="1">
                    <mxGeometry width="50" height="50" relative="1" as="geometry">
                        <mxPoint x="410" y="360" as="sourcePoint"/>
                        <mxPoint x="460" y="310" as="targetPoint"/>
                    </mxGeometry>
                </mxCell>
                <mxCell id="2CqPvURFtL7TkKafsAJ7-19" value="" style="endArrow=classic;html=1;rounded=0;entryX=0;entryY=0.363;entryDx=0;entryDy=0;exitX=1;exitY=0.625;exitDx=0;exitDy=0;exitPerimeter=0;entryPerimeter=0;" parent="1" source="2CqPvURFtL7TkKafsAJ7-3" target="2CqPvURFtL7TkKafsAJ7-4" edge="1">
                    <mxGeometry width="50" height="50" relative="1" as="geometry">
                        <mxPoint x="350" y="270" as="sourcePoint"/>
                        <mxPoint x="400" y="220" as="targetPoint"/>
                    </mxGeometry>
                </mxCell>
                <mxCell id="2CqPvURFtL7TkKafsAJ7-20" value="Whitelist Admin verification" style="ellipse;whiteSpace=wrap;html=1;" parent="1" vertex="1">
                    <mxGeometry x="140" y="640" width="160" height="80" as="geometry"/>
                </mxCell>
                <mxCell id="2CqPvURFtL7TkKafsAJ7-21" value="&amp;lt;&amp;lt;includes&amp;gt;&amp;gt;" style="html=1;verticalAlign=bottom;endArrow=open;dashed=1;endSize=8;rounded=0;entryX=0.5;entryY=1;entryDx=0;entryDy=0;" parent="1" source="2CqPvURFtL7TkKafsAJ7-20" target="2CqPvURFtL7TkKafsAJ7-11" edge="1">
                    <mxGeometry relative="1" as="geometry">
                        <mxPoint x="256" y="722.96" as="sourcePoint"/>
                        <mxPoint x="390" y="580" as="targetPoint"/>
                    </mxGeometry>
                </mxCell>
                <mxCell id="2CqPvURFtL7TkKafsAJ7-22" value="User is regular User" style="ellipse;whiteSpace=wrap;html=1;" parent="1" vertex="1">
                    <mxGeometry x="160" y="320" width="160" height="80" as="geometry"/>
                </mxCell>
                <mxCell id="2CqPvURFtL7TkKafsAJ7-23" value="User is Admin User" style="ellipse;whiteSpace=wrap;html=1;" parent="1" vertex="1">
                    <mxGeometry y="400" width="160" height="80" as="geometry"/>
                </mxCell>
                <mxCell id="2CqPvURFtL7TkKafsAJ7-24" value="" style="endArrow=classic;html=1;rounded=0;entryX=0.406;entryY=1.025;entryDx=0;entryDy=0;exitX=0.5;exitY=0;exitDx=0;exitDy=0;entryPerimeter=0;" parent="1" source="2CqPvURFtL7TkKafsAJ7-11" target="2CqPvURFtL7TkKafsAJ7-22" edge="1">
                    <mxGeometry width="50" height="50" relative="1" as="geometry">
                        <mxPoint x="290.0000000000001" y="420" as="sourcePoint"/>
                        <mxPoint x="232.12" y="499.12" as="targetPoint"/>
                    </mxGeometry>
                </mxCell>
                <mxCell id="2CqPvURFtL7TkKafsAJ7-25" value="" style="endArrow=classic;html=1;rounded=0;entryX=0.55;entryY=1.013;entryDx=0;entryDy=0;exitX=0;exitY=0.5;exitDx=0;exitDy=0;entryPerimeter=0;" parent="1" source="2CqPvURFtL7TkKafsAJ7-11" target="2CqPvURFtL7TkKafsAJ7-23" edge="1">
                    <mxGeometry width="50" height="50" relative="1" as="geometry">
                        <mxPoint x="367.8800000000001" y="480.88" as="sourcePoint"/>
                        <mxPoint x="310" y="560" as="targetPoint"/>
                    </mxGeometry>
                </mxCell>
                <mxCell id="2CqPvURFtL7TkKafsAJ7-26" value="No" style="text;html=1;align=center;verticalAlign=middle;resizable=0;points=[];autosize=1;strokeColor=none;fillColor=none;" parent="1" vertex="1">
                    <mxGeometry x="220" y="425" width="40" height="30" as="geometry"/>
                </mxCell>
                <mxCell id="2CqPvURFtL7TkKafsAJ7-27" value="Yes" style="text;html=1;align=center;verticalAlign=middle;resizable=0;points=[];autosize=1;strokeColor=none;fillColor=none;" parent="1" vertex="1">
                    <mxGeometry x="120" y="485" width="40" height="30" as="geometry"/>
                </mxCell>
                <mxCell id="2CqPvURFtL7TkKafsAJ7-31" value="&lt;div&gt;User is validated ?&lt;/div&gt;&lt;div&gt;- password is strong enough&lt;/div&gt;&lt;div&gt;- all fields filled&lt;/div&gt;&lt;div&gt;- correct formats&lt;br&gt;&lt;/div&gt;" style="rhombus;whiteSpace=wrap;html=1;" parent="1" vertex="1">
                    <mxGeometry x="510" y="280" width="200" height="200" as="geometry"/>
                </mxCell>
                <mxCell id="2CqPvURFtL7TkKafsAJ7-33" value="Yes" style="text;html=1;align=center;verticalAlign=middle;resizable=0;points=[];autosize=1;strokeColor=none;fillColor=none;" parent="1" vertex="1">
                    <mxGeometry x="550" y="500" width="40" height="30" as="geometry"/>
                </mxCell>
                <mxCell id="2CqPvURFtL7TkKafsAJ7-34" value="User rejected: error: check the fields again" style="ellipse;whiteSpace=wrap;html=1;" parent="1" vertex="1">
                    <mxGeometry x="680" y="400" width="160" height="80" as="geometry"/>
                </mxCell>
                <mxCell id="2CqPvURFtL7TkKafsAJ7-35" value="" style="endArrow=classic;html=1;rounded=0;exitX=1;exitY=0.5;exitDx=0;exitDy=0;entryX=0.456;entryY=-0.025;entryDx=0;entryDy=0;entryPerimeter=0;" parent="1" source="2CqPvURFtL7TkKafsAJ7-31" target="2CqPvURFtL7TkKafsAJ7-34" edge="1">
                    <mxGeometry width="50" height="50" relative="1" as="geometry">
                        <mxPoint x="610" y="735" as="sourcePoint"/>
                        <mxPoint x="480" y="655" as="targetPoint"/>
                    </mxGeometry>
                </mxCell>
                <mxCell id="2CqPvURFtL7TkKafsAJ7-36" value="No" style="text;html=1;align=center;verticalAlign=middle;resizable=0;points=[];autosize=1;strokeColor=none;fillColor=none;" parent="1" vertex="1">
                    <mxGeometry x="720" y="345" width="40" height="30" as="geometry"/>
                </mxCell>
                <mxCell id="2CqPvURFtL7TkKafsAJ7-37" value="User rejected: error: already in database" style="ellipse;whiteSpace=wrap;html=1;" parent="1" vertex="1">
                    <mxGeometry x="650" y="680" width="160" height="80" as="geometry"/>
                </mxCell>
                <mxCell id="2CqPvURFtL7TkKafsAJ7-38" value="User is new?" style="rhombus;whiteSpace=wrap;html=1;" parent="1" vertex="1">
                    <mxGeometry x="520" y="570" width="120" height="120" as="geometry"/>
                </mxCell>
                <mxCell id="2CqPvURFtL7TkKafsAJ7-39" value="" style="endArrow=classic;html=1;rounded=0;exitX=0.5;exitY=1;exitDx=0;exitDy=0;entryX=0.5;entryY=0;entryDx=0;entryDy=0;" parent="1" source="2CqPvURFtL7TkKafsAJ7-31" target="2CqPvURFtL7TkKafsAJ7-38" edge="1">
                    <mxGeometry width="50" height="50" relative="1" as="geometry">
                        <mxPoint x="545.04" y="530" as="sourcePoint"/>
                        <mxPoint x="480" y="630" as="targetPoint"/>
                    </mxGeometry>
                </mxCell>
                <mxCell id="2CqPvURFtL7TkKafsAJ7-40" value="" style="endArrow=classic;html=1;rounded=0;exitX=1;exitY=0.5;exitDx=0;exitDy=0;entryX=0.456;entryY=-0.025;entryDx=0;entryDy=0;entryPerimeter=0;" parent="1" source="2CqPvURFtL7TkKafsAJ7-38" target="2CqPvURFtL7TkKafsAJ7-37" edge="1">
                    <mxGeometry width="50" height="50" relative="1" as="geometry">
                        <mxPoint x="430" y="680" as="sourcePoint"/>
                        <mxPoint x="480" y="630" as="targetPoint"/>
                    </mxGeometry>
                </mxCell>
                <mxCell id="2CqPvURFtL7TkKafsAJ7-42" value="No" style="text;html=1;align=center;verticalAlign=middle;resizable=0;points=[];autosize=1;strokeColor=none;fillColor=none;" parent="1" vertex="1">
                    <mxGeometry x="660" y="620" width="40" height="30" as="geometry"/>
                </mxCell>
                <mxCell id="2CqPvURFtL7TkKafsAJ7-43" value="Yes" style="text;html=1;align=center;verticalAlign=middle;resizable=0;points=[];autosize=1;strokeColor=none;fillColor=none;" parent="1" vertex="1">
                    <mxGeometry x="450" y="600" width="40" height="30" as="geometry"/>
                </mxCell>
                <mxCell id="2CqPvURFtL7TkKafsAJ7-44" value="" style="endArrow=classic;html=1;rounded=0;exitX=0.383;exitY=1.05;exitDx=0;exitDy=0;exitPerimeter=0;entryX=0.5;entryY=0;entryDx=0;entryDy=0;" parent="1" source="2CqPvURFtL7TkKafsAJ7-4" target="2CqPvURFtL7TkKafsAJ7-31" edge="1">
                    <mxGeometry width="50" height="50" relative="1" as="geometry">
                        <mxPoint x="509.99999999999994" y="170" as="sourcePoint"/>
                        <mxPoint x="514.96" y="290" as="targetPoint"/>
                    </mxGeometry>
                </mxCell>
                <mxCell id="2CqPvURFtL7TkKafsAJ7-45" value="" style="endArrow=classic;html=1;rounded=0;exitX=0;exitY=0.5;exitDx=0;exitDy=0;entryX=0.5;entryY=1;entryDx=0;entryDy=0;" parent="1" source="2CqPvURFtL7TkKafsAJ7-38" target="2CqPvURFtL7TkKafsAJ7-10" edge="1">
                    <mxGeometry width="50" height="50" relative="1" as="geometry">
                        <mxPoint x="550" y="770" as="sourcePoint"/>
                        <mxPoint x="590" y="890" as="targetPoint"/>
                    </mxGeometry>
                </mxCell>
                <mxCell id="2CqPvURFtL7TkKafsAJ7-46" value="Verify Users Table" style="ellipse;whiteSpace=wrap;html=1;" parent="1" vertex="1">
                    <mxGeometry x="400" y="760" width="160" height="80" as="geometry"/>
                </mxCell>
                <mxCell id="2CqPvURFtL7TkKafsAJ7-47" value="&amp;lt;&amp;lt;includes&amp;gt;&amp;gt;" style="html=1;verticalAlign=bottom;endArrow=open;dashed=1;endSize=8;rounded=0;entryX=0.5;entryY=1;entryDx=0;entryDy=0;" parent="1" source="2CqPvURFtL7TkKafsAJ7-46" target="2CqPvURFtL7TkKafsAJ7-38" edge="1">
                    <mxGeometry relative="1" as="geometry">
                        <mxPoint x="275" y="892.96" as="sourcePoint"/>
                        <mxPoint x="549" y="700" as="targetPoint"/>
                    </mxGeometry>
                </mxCell>
            </root>
        </mxGraphModel>
    </diagram>
</mxfile>